<?xml version="1.0" standalone="no"?>
<!DOCTYPE svg PUBLIC "-//W3C//DTD SVG 20010904//EN"
 "http://www.w3.org/TR/2001/REC-SVG-20010904/DTD/svg10.dtd">
<svg version="1.0" xmlns="http://www.w3.org/2000/svg"
 width="435.000000pt" height="116.000000pt" viewBox="0 0 435.000000 116.000000"
 preserveAspectRatio="xMidYMid meet">
<metadata>
Created by potrace 1.16, written by Peter Selinger 2001-2019
</metadata>
<g transform="translate(0.000000,116.000000) scale(0.100000,-0.100000)"
fill="#000000" stroke="none">
<path d="M2160 835 l0 -157 -41 37 c-167 150 -419 105 -516 -93 -23 -46 -28
-70 -28 -132 0 -65 4 -84 33 -142 33 -68 81 -116 152 -154 27 -15 57 -19 130
-19 110 0 157 18 228 85 l42 41 0 -61 0 -60 30 0 30 0 -2 402 -3 403 -27 3
-28 3 0 -156z m-191 -101 c69 -20 143 -88 168 -152 51 -133 -11 -275 -146
-335 -68 -30 -176 -22 -233 18 -89 63 -138 165 -124 259 11 69 63 146 125 183
75 45 128 52 210 27z"/>
<path d="M4117 984 c-4 -4 -7 -75 -7 -157 l0 -150 -46 43 c-66 61 -123 83
-214 84 -66 1 -84 -3 -142 -32 -76 -37 -120 -83 -155 -160 -22 -46 -24 -65
-21 -135 4 -97 27 -152 89 -214 60 -61 118 -85 215 -91 72 -4 89 -1 137 21 30
13 73 41 96 62 l41 37 0 -56 c0 -56 0 -56 30 -56 l30 0 -2 403 c-3 396 -3 402
-23 405 -12 2 -24 0 -28 -4z m-144 -272 c121 -65 169 -220 108 -340 -23 -46
-90 -109 -137 -128 -47 -20 -150 -17 -199 5 -101 46 -155 129 -155 240 0 198
208 319 383 223z"/>
<path d="M423 800 c-94 -20 -180 -87 -224 -176 -34 -69 -35 -208 -1 -272 60
-113 150 -172 273 -180 103 -6 162 14 234 80 l55 50 0 -61 c0 -58 1 -61 25
-61 l25 0 0 310 0 310 -25 0 c-24 0 -25 -3 -25 -61 l0 -60 -47 40 c-85 71
-192 101 -290 81z m182 -81 c87 -45 135 -116 143 -214 4 -58 1 -72 -27 -129
-49 -100 -123 -146 -235 -146 -239 0 -347 298 -165 453 79 68 193 82 284 36z"/>
<path d="M1160 801 c-60 -13 -109 -42 -153 -91 -67 -75 -77 -118 -77 -341 l0
-189 30 0 30 0 0 193 c0 172 3 197 21 237 34 76 90 120 172 135 86 16 194 -41
237 -126 18 -34 20 -59 20 -239 l0 -200 30 0 30 0 0 203 0 204 -31 61 c-58
116 -186 180 -309 153z"/>
<path d="M2528 796 c-60 -16 -119 -57 -153 -106 -47 -67 -55 -116 -55 -322 l0
-188 30 0 30 0 0 198 c0 169 3 203 19 237 26 58 88 110 149 124 51 13 66 28
56 56 -7 18 -14 18 -76 1z"/>
<path d="M2853 800 c-235 -49 -334 -349 -172 -525 62 -67 129 -98 225 -103 73
-4 89 -1 140 22 72 33 127 84 162 151 23 43 27 62 27 140 0 75 -4 98 -24 139
-64 130 -217 205 -358 176z m143 -65 c227 -67 247 -381 31 -483 -95 -44 -215
-24 -289 50 -55 56 -73 102 -73 189 0 67 4 81 30 124 39 62 92 105 152 121 64
17 90 17 149 -1z"/>
<path d="M3357 784 c-4 -4 -7 -140 -7 -301 l0 -294 33 3 32 3 0 295 0 295 -25
3 c-14 2 -29 0 -33 -4z"/>
</g>
</svg>
