<?xml version="1.0" standalone="no"?>
<!DOCTYPE svg PUBLIC "-//W3C//DTD SVG 20010904//EN"
 "http://www.w3.org/TR/2001/REC-SVG-20010904/DTD/svg10.dtd">
<svg version="1.0" xmlns="http://www.w3.org/2000/svg"
 width="280.000000pt" height="280.000000pt" viewBox="0 0 280.000000 280.000000"
 preserveAspectRatio="xMidYMid meet">
<metadata>
Created by potrace 1.16, written by Peter Selinger 2001-2019
</metadata>
<g transform="translate(0.000000,280.000000) scale(0.100000,-0.100000)"
fill="#000000" stroke="none">
<path d="M2664 1578 c-5 -7 -9 -15 -10 -18 0 -3 -10 -27 -22 -54 -12 -26 -52
-142 -89 -257 -37 -115 -70 -209 -73 -209 -3 0 -45 122 -93 270 -71 217 -92
270 -106 270 -10 0 -20 -3 -23 -6 -8 -7 37 -173 114 -424 l63 -205 45 0 44 0
68 220 c88 289 115 402 101 416 -8 8 -13 7 -19 -3z"/>
<path d="M130 1565 c0 -13 -38 -22 -72 -16 -5 0 -8 -14 -8 -33 0 -33 2 -35 37
-38 l37 -3 -3 -262 -3 -263 56 0 57 0 -1 255 c-1 140 2 259 5 265 3 5 33 10
66 10 40 0 59 4 59 13 0 6 3 22 6 35 6 21 4 22 -64 22 -50 0 -73 4 -82 15 -7
9 -29 15 -51 15 -28 0 -39 -4 -39 -15z"/>
<path d="M1764 1569 c-4 -7 -9 -149 -12 -316 l-5 -303 32 0 31 0 -1 253 c-1
138 -4 279 -8 311 -6 57 -21 80 -37 55z"/>
<path d="M973 1550 c-37 -4 -66 -15 -99 -39 -48 -34 -63 -31 -64 12 0 9 -1 17
-2 17 -2 1 -19 3 -39 6 l-36 5 -6 -158 c-4 -87 -7 -222 -7 -300 l0 -143 55 0
55 0 0 223 0 223 28 26 c51 48 78 60 128 57 39 -3 49 0 55 16 21 54 10 64 -68
55z"/>
<path d="M1236 1549 c-107 -29 -176 -144 -176 -295 0 -194 107 -315 282 -317
67 -1 163 19 196 41 20 14 -13 86 -36 77 -98 -41 -160 -44 -229 -10 -38 20
-56 36 -76 74 -15 27 -27 63 -27 80 l0 31 198 2 197 3 -3 59 c-7 111 -54 201
-124 237 -44 22 -150 32 -202 18z m153 -77 c31 -23 59 -77 63 -122 l3 -35
-142 -3 -143 -3 0 30 c0 120 131 199 219 133z"/>
<path d="M507 1453 c-4 -54 -7 -189 -7 -300 l0 -203 55 0 55 0 -1 213 c-1 116
-4 250 -7 297 l-7 85 -41 3 -41 3 -6 -98z"/>
</g>
</svg>
