<?xml version="1.0" standalone="no"?>
<!DOCTYPE svg PUBLIC "-//W3C//DTD SVG 20010904//EN"
 "http://www.w3.org/TR/2001/REC-SVG-20010904/DTD/svg10.dtd">
<svg version="1.0" xmlns="http://www.w3.org/2000/svg"
 width="900.000000pt" height="360.000000pt" viewBox="0 0 900.000000 360.000000"
 preserveAspectRatio="xMidYMid meet">
<metadata>
Created by potrace 1.16, written by Peter Selinger 2001-2019
</metadata>
<g transform="translate(0.000000,360.000000) scale(0.100000,-0.100000)"
fill="#000000" stroke="none">
<path d="M2505 3120 c-66 -13 -149 -48 -211 -89 -151 -97 -264 -294 -264 -458
l0 -53 33 0 c49 0 144 27 201 58 121 64 243 225 280 368 16 63 22 185 9 183
-5 -1 -26 -5 -48 -9z"/>
<path d="M7990 2263 l0 -416 -54 59 c-145 161 -389 198 -606 93 -96 -47 -205
-161 -259 -270 -68 -138 -84 -217 -84 -409 0 -139 3 -177 21 -244 36 -131 87
-221 172 -307 110 -111 221 -159 370 -159 173 0 326 75 416 206 l39 57 7 -44
c3 -24 7 -77 7 -116 l1 -73 97 0 96 0 -6 97 c-4 54 -7 513 -7 1021 l0 922
-105 0 -105 0 0 -417z m-223 -412 c113 -53 188 -154 212 -285 14 -75 14 -376
1 -447 -16 -84 -63 -173 -122 -233 -145 -144 -386 -136 -524 17 -89 99 -134
242 -134 424 0 132 19 224 64 320 100 209 309 294 503 204z"/>
<path d="M4540 2585 c-8 -2 -61 -9 -117 -15 l-103 -12 0 -959 0 -959 105 0
105 0 0 399 0 399 43 -10 c60 -14 308 -3 387 17 116 30 241 97 312 168 110
110 159 238 159 417 0 121 -17 195 -63 283 -74 138 -208 225 -406 263 -65 12
-372 19 -422 9z m378 -180 c128 -30 217 -98 269 -203 26 -53 28 -66 28 -182 0
-119 -1 -128 -31 -190 -80 -167 -260 -250 -508 -236 -54 4 -109 9 -122 12
l-24 6 2 397 3 396 40 6 c81 12 279 9 343 -6z"/>
<path d="M3724 2546 c-121 -53 -95 -249 36 -271 55 -9 122 23 144 69 61 128
-54 256 -180 202z"/>
<path d="M2434 2489 c-28 -5 -103 -27 -165 -50 -63 -22 -139 -47 -169 -55 -61
-17 -67 -15 -295 66 -78 28 -103 33 -185 32 -295 -1 -533 -202 -621 -527 -19
-67 -22 -108 -23 -245 -1 -187 12 -266 70 -451 71 -225 199 -448 348 -606 93
-98 155 -134 245 -141 69 -4 67 -5 281 73 60 22 92 27 165 27 93 0 126 -8 280
-68 100 -39 198 -39 278 -2 105 49 253 226 362 430 40 76 95 206 95 227 0 5
-30 26 -66 47 -38 22 -94 68 -129 106 -181 196 -203 480 -54 703 45 67 73 96
159 163 l24 20 -37 46 c-44 53 -143 126 -211 155 -104 45 -256 67 -352 50z"/>
<path d="M6038 2050 c-118 -21 -278 -86 -278 -113 0 -19 43 -138 49 -134 68
38 156 71 222 83 254 49 406 -55 426 -290 l6 -73 -33 -6 c-18 -4 -60 -7 -94
-7 -78 0 -223 -24 -302 -49 -219 -70 -351 -207 -373 -390 -31 -251 121 -443
363 -458 162 -11 299 41 402 152 l52 56 7 -68 c12 -122 3 -113 112 -113 l95 0
-7 27 c-3 16 -10 246 -14 513 -7 405 -11 495 -24 543 -46 158 -135 259 -275
309 -64 23 -253 33 -334 18z m422 -849 c0 -175 -7 -209 -60 -287 -88 -126
-294 -180 -417 -108 -58 34 -92 88 -106 167 -20 118 23 228 113 288 87 58 239
96 398 98 l72 1 0 -159z"/>
<path d="M3680 1335 l0 -695 105 0 105 0 0 695 0 695 -105 0 -105 0 0 -695z"/>
</g>
</svg>
