<?xml version="1.0" standalone="no"?>
<!DOCTYPE svg PUBLIC "-//W3C//DTD SVG 20010904//EN"
 "http://www.w3.org/TR/2001/REC-SVG-20010904/DTD/svg10.dtd">
<svg version="1.0" xmlns="http://www.w3.org/2000/svg"
 width="840.000000pt" height="197.000000pt" viewBox="0 0 840.000000 197.000000"
 preserveAspectRatio="xMidYMid meet">

<g transform="translate(0.000000,197.000000) scale(0.100000,-0.100000)"
fill="#000000" stroke="none">
<path d="M2025 1528 c-84 -43 -145 -131 -145 -208 0 -35 3 -40 23 -40 95 1
207 130 207 239 0 26 -4 31 -22 31 -13 -1 -41 -10 -63 -22z"/>
<path d="M3970 985 l0 -565 70 0 70 0 0 258 c0 229 2 261 19 297 26 57 72 96
129 110 92 24 160 -6 202 -91 24 -48 25 -55 28 -311 l4 -263 63 0 62 0 7 117
c3 64 3 191 0 282 -8 185 -23 246 -77 307 -51 58 -100 79 -192 79 -70 0 -87
-4 -134 -30 -29 -16 -66 -45 -82 -64 l-29 -36 0 238 0 237 -70 0 -70 0 0 -565z"/>
<path d="M2945 1488 c-50 -29 -60 -89 -22 -133 47 -55 147 -20 147 50 0 71
-67 116 -125 83z"/>
<path d="M3260 1491 l-45 -6 -3 -532 -2 -533 70 0 70 0 0 216 0 215 68 -6 c86
-8 211 14 280 49 114 58 172 156 172 290 0 161 -77 260 -235 302 -51 14 -286
17 -375 5z m380 -133 c63 -36 94 -94 94 -173 0 -150 -92 -227 -275 -228 -47 0
-91 3 -97 7 -14 8 -18 407 -4 420 4 4 59 6 122 4 103 -3 120 -6 160 -30z"/>
<path d="M1645 1281 c-78 -20 -171 -95 -208 -167 -59 -115 -44 -301 38 -469
45 -94 126 -194 176 -220 39 -21 99 -19 159 5 65 26 145 26 210 0 68 -27 128
-26 171 3 46 31 120 125 163 207 l35 66 -52 35 c-135 89 -148 283 -28 392 l43
39 -28 29 c-16 16 -53 42 -84 57 -68 33 -149 34 -228 3 -66 -26 -123 -27 -195
-2 -69 24 -133 32 -172 22z"/>
<path d="M4997 1200 c-131 -33 -233 -144 -267 -289 -16 -69 -8 -212 16 -271
63 -161 186 -237 367 -228 115 5 186 37 257 115 62 68 91 142 97 254 12 185
-60 325 -203 395 -43 21 -72 27 -142 30 -48 2 -104 -1 -125 -6z m206 -123 c43
-24 91 -91 109 -151 21 -70 16 -203 -10 -261 -90 -198 -316 -207 -409 -17 -24
50 -27 68 -28 157 0 94 2 105 33 168 36 72 81 112 144 128 47 11 117 1 161
-24z"/>
<path d="M5870 1201 c-53 -17 -97 -45 -137 -89 l-43 -45 0 62 0 61 -66 0 c-64
0 -66 -1 -60 -22 3 -13 6 -186 6 -385 l0 -363 70 0 70 0 0 258 c0 229 2 261
19 297 26 57 72 96 129 110 92 24 159 -6 202 -91 24 -48 25 -55 28 -312 l4
-263 66 3 67 3 3 220 c2 121 -2 255 -7 297 -23 170 -108 258 -256 264 -38 2
-81 0 -95 -5z"/>
<path d="M6562 1191 c-94 -32 -171 -112 -213 -218 -33 -85 -34 -263 -1 -345
31 -76 99 -150 170 -185 54 -26 64 -28 192 -28 106 0 147 4 188 19 l53 18 -6
42 c-4 22 -10 44 -14 48 -3 4 -29 0 -56 -8 -77 -24 -220 -23 -275 3 -81 36
-129 104 -145 200 l-7 43 274 2 273 3 3 45 c8 110 -43 246 -117 311 -76 68
-208 88 -319 50z m194 -100 c61 -28 104 -101 104 -177 l0 -34 -200 0 -200 0 0
25 c0 34 24 91 57 133 51 67 156 90 239 53z"/>
<path d="M2912 808 l3 -383 68 -3 67 -3 0 386 0 385 -70 0 -70 0 2 -382z"/>
</g>
</svg>
